<?xml version="1.0" encoding="UTF-8"?>
<svg id="Logo" xmlns="http://www.w3.org/2000/svg" viewBox="0 0 283.46 283.46">
  <defs>
    <style>
      .cls-1 {
        fill: #113c24;
      }
    </style>
  </defs>
  <path class="cls-1" d="M169.82,32.38h-13.68v182.03c0,18.46,30.81,27.69,51.18,27.69.95,0,1.59.64,1.59,1.27s-.64,1.27-1.59,1.27h-107.5c-.95,0-1.59-.64-1.59-1.27s.64-1.27,1.59-1.27c20.37,0,27.69-9.23,27.69-27.69V51.79c0-14.32-8.91-18.46-28.32-18.46-45.51,0-66.51,27.69-66.51,55.37,0,.32,0,2.55.32,4.46,2.55-7,11.77-11.46,19.73-11.46,10.5,0,21.32,6.36,21.32,20.37,0,11.77-7.96,23.23-24.19,23.23s-29.28-11.77-29.28-33.73c0-30.87,25.78-62.05,91.65-62.05h124.11v69.69c0,.95-.64,1.27-1.59,1.27s-1.27-.32-1.27-1.27c0-33.1-8.91-66.83-63.65-66.83Z"/>
  <path class="cls-1" d="M199.17,243.39c-4.14-2.58-3.93-13.47-.02-26.76-6.91-1.34-18.57-4.61-29.63-13.53-26.33-21.2-25.72-55.34-25.6-62.52.41-23.16,10.41-52.41,22.17-53.23.6-.04,1.09,0,1.51.05,11.83,1.44,38.51,18.59,50.44,47.32,15.09,36.35-.67,75.83-3.86,75.61-1.16-.08-1.11-5.43-2.27-13.53-6.12-42.66-33.6-76.3-34.99-75.53-.85.47,8.76,13.18,17.73,39.74,0,0,0,0,0,0,19.33,29.6,12.68,66.15,14.78,78.79.09.53.57,3.25-.69,4.14-.39.27-1.01.35-2.25.52-.35.05-1.31.17-2.21.16-1.87-.01-4.04-.57-5.1-1.23Z"/>
</svg>